<svg width="512" height="512" viewBox="0 0 512 512" fill="none" xmlns="http://www.w3.org/2000/svg">
  <!-- Background circle with gradient -->
  <defs>
    <linearGradient id="mainGradient" x1="0%" y1="0%" x2="100%" y2="100%">
      <stop offset="0%" style="stop-color:#3B82F6;stop-opacity:1" />
      <stop offset="100%" style="stop-color:#6366F1;stop-opacity:1" />
    </linearGradient>
    <linearGradient id="sparkleGradient" x1="0%" y1="0%" x2="100%" y2="100%">
      <stop offset="0%" style="stop-color:#93C5FD;stop-opacity:1" />
      <stop offset="100%" style="stop-color:#A5B4FC;stop-opacity:1" />
    </linearGradient>
  </defs>

  <!-- Main circle -->
  <circle cx="256" cy="256" r="240" fill="url(#mainGradient)"/>

  <!-- Browser window representation -->
  <rect x="120" y="160" width="272" height="192" rx="12" fill="white" opacity="0.95"/>

  <!-- Browser dots -->
  <circle cx="145" cy="185" r="6" fill="#EF4444"/>
  <circle cx="170" cy="185" r="6" fill="#F59E0B"/>
  <circle cx="195" cy="185" r="6" fill="#10B981"/>

  <!-- URL bar -->
  <rect x="140" y="205" width="232" height="28" rx="14" fill="#E0E7FF"/>

  <!-- Content lines (representing generated webpage) -->
  <rect x="140" y="250" width="180" height="12" rx="6" fill="#C7D2FE"/>
  <rect x="140" y="275" width="140" height="12" rx="6" fill="#C7D2FE"/>
  <rect x="140" y="300" width="200" height="12" rx="6" fill="#C7D2FE"/>
  <rect x="140" y="325" width="160" height="12" rx="6" fill="#C7D2FE"/>

  <!-- AI Sparkles around the logo -->
  <!-- Top sparkle -->
  <g transform="translate(256, 60)">
    <path d="M0,-20 L2,-6 L8,-4 L2,-2 L0,12 L-2,-2 L-8,-4 L-2,-6 Z" fill="url(#sparkleGradient)"/>
  </g>

  <!-- Top-right sparkle -->
  <g transform="translate(400, 120)">
    <path d="M0,-15 L1.5,-4.5 L6,-3 L1.5,-1.5 L0,9 L-1.5,-1.5 L-6,-3 L-1.5,-4.5 Z" fill="url(#sparkleGradient)"/>
  </g>

  <!-- Right sparkle -->
  <g transform="translate(440, 256)">
    <path d="M0,-18 L1.8,-5.4 L7.2,-3.6 L1.8,-1.8 L0,10.8 L-1.8,-1.8 L-7.2,-3.6 L-1.8,-5.4 Z" fill="url(#sparkleGradient)"/>
  </g>

  <!-- Bottom-right sparkle -->
  <g transform="translate(390, 390)">
    <path d="M0,-14 L1.4,-4.2 L5.6,-2.8 L1.4,-1.4 L0,8.4 L-1.4,-1.4 L-5.6,-2.8 L-1.4,-4.2 Z" fill="url(#sparkleGradient)"/>
  </g>

  <!-- Bottom sparkle -->
  <g transform="translate(256, 450)">
    <path d="M0,-16 L1.6,-4.8 L6.4,-3.2 L1.6,-1.6 L0,9.6 L-1.6,-1.6 L-6.4,-3.2 L-1.6,-4.8 Z" fill="url(#sparkleGradient)"/>
  </g>

  <!-- Bottom-left sparkle -->
  <g transform="translate(122, 390)">
    <path d="M0,-13 L1.3,-3.9 L5.2,-2.6 L1.3,-1.3 L0,7.8 L-1.3,-1.3 L-5.2,-2.6 L-1.3,-3.9 Z" fill="url(#sparkleGradient)"/>
  </g>

  <!-- Left sparkle -->
  <g transform="translate(72, 256)">
    <path d="M0,-17 L1.7,-5.1 L6.8,-3.4 L1.7,-1.7 L0,10.2 L-1.7,-1.7 L-6.8,-3.4 L-1.7,-5.1 Z" fill="url(#sparkleGradient)"/>
  </g>

  <!-- Top-left sparkle -->
  <g transform="translate(112, 120)">
    <path d="M0,-15 L1.5,-4.5 L6,-3 L1.5,-1.5 L0,9 L-1.5,-1.5 L-6,-3 L-1.5,-4.5 Z" fill="url(#sparkleGradient)"/>
  </g>
</svg>
